<?xml version="1.0" encoding="UTF-8"?>
<svg width="48px" height="70px" viewBox="0 0 48 70" version="1.1" xmlns="http://www.w3.org/2000/svg" xmlns:xlink="http://www.w3.org/1999/xlink">
    <!-- Generator: Sketch 49.3 (51167) - http://www.bohemiancoding.com/sketch -->
    <title>Shape</title>
    <desc>Created with Sketch.</desc>
    <defs></defs>
    <g id="desktop" stroke="none" stroke-width="1" fill="none" fill-rule="evenodd">
        <g id="Contact-us" transform="translate(-697.000000, -329.000000)" fill="#E31E24" stroke="#000000" stroke-width="0.3">
            <g id="Shape" transform="translate(665.000000, 309.000000)">
                <path d="M55.9999411,21 C43.2894473,21 33,31.2459397 33,43.8132251 C33,48.8961717 36.2684127,57.1409513 42.9666411,69.0678654 C47.7280325,77.512761 52.3683714,84.5568445 52.5701253,84.837007 L55.9999411,90 L59.4297569,84.837007 C59.6315107,84.5568445 64.3122005,77.512761 69.033241,69.0678654 C75.7314695,57.1409513 78.9998822,48.8561485 78.9998822,43.8132251 C79.040233,31.2459397 68.7104349,21 55.9999411,21 Z M56,56 C49.3918919,56 44,50.6486486 44,44 C44,37.3918919 49.3513514,32 56,32 C62.6081081,32 68,37.3513514 68,44 C68,50.6486486 62.6486486,56 56,56 Z"></path>
            </g>
        </g>
    </g>
</svg>